<svg xmlns="http://www.w3.org/2000/svg" xmlns:xlink="http://www.w3.org/1999/xlink" aria-hidden="true" role="img" width="136" height="34" viewBox="0 0 136 34">
											<g id="fiveStars">
												<g id="starSVG">
													<mask id="starMask">
														<rect fill="white" x="0" y="0" width="100%" height="100%"/>
														<g id="star">
															<path id="starToScale" d="M12 17.27l4.15 2.51c.76.46 1.69-.22 1.49-1.08l-1.1-4.72l3.67-3.18c.67-.58.31-1.68-.57-1.75l-4.83-.41l-1.89-4.46c-.34-.81-1.5-.81-1.84 0L9.19 8.63l-4.83.41c-.88.07-1.24 1.17-.57 1.75l3.67 3.18l-1.1 4.72c-.2.86.73 1.54 1.49 1.08l4.15-2.5z" fill="black" transform="scale(1.43,1.45) translate(-3.3,0)" stroke-width="0"/>
														</g>
														<use xlink:href="#star" x="20.367347%"/>
														<use xlink:href="#star" x="40.735294%"/>
														<use xlink:href="#star" x="61.102941%"/>
														<use xlink:href="#star" x="81.470588%"/>
													</mask>
													<rect x="0" y="0" width="100%" height="100%" mask="url(#starMask)" fill="currentColor"/>
												</g>
											</g> 
										</svg>