<svg xmlns="http://www.w3.org/2000/svg" xmlns:xlink="http://www.w3.org/1999/xlink" aria-hidden="true" role="img" width="32" height="32" viewBox="20 20 24 24">

<mask id="monMask">
<rect fill="white" x="0" y="0" width="100%" height="100%" />
<path d="M12 17.27l4.15 2.51c.76.46 1.69-.22 1.49-1.08l-1.1-4.72l3.67-3.18c.67-.58.31-1.68-.57-1.75l-4.83-.41l-1.89-4.46c-.34-.81-1.5-.81-1.84 0L9.19 8.63l-4.83.41c-.88.07-1.24 1.17-.57 1.75l3.67 3.18l-1.1 4.72c-.2.86.73 1.54 1.49 1.08l4.15-2.5z" fill="black"></path>
</mask>

<rect x="0" y="0" width="100%" height="100%" mask="url(#monMask)" fill="currentColor"/>

</svg>
